inDegrees=yes
name=ik_S42_A11_T01
DataType=double
version=3
OpenSimVersion=4.3-2021-08-27-4bc7ad9
endheader
time	pelvis_tilt	pelvis_list	pelvis_rotation	pelvis_tx	pelvis_ty	pelvis_tz	hip_flexion_r	hip_adduction_r	hip_rotation_r	knee_angle_r	knee_angle_r_beta	ankle_angle_r	subtalar_angle_r	mtp_angle_r	hip_flexion_l	hip_adduction_l	hip_rotation_l	knee_angle_l	knee_angle_l_beta	ankle_angle_l	subtalar_angle_l	mtp_angle_l	lumbar_extension	lumbar_bending	lumbar_rotation	arm_flex_r	arm_add_r	arm_rot_r	elbow_flex_r	pro_sup_r	wrist_flex_r	wrist_dev_r	arm_flex_l	arm_add_l	arm_rot_l	elbow_flex_l	pro_sup_l	wrist_flex_l	wrist_dev_l
3.960000000000003	0.9931505753355152	-2.940760393877999	33.97081566247221	0	0.9399999999999999	0	27.76573763828348	-8.889132780137466	-8.019646675061043	32.66081051819474	0.5700386799124936	0	0	0	27.76573763828348	-8.889132780137466	-8.019646675061043	32.66081051819474	0.5700386799124936	0	0	0	0.01268315917797703	-2.970960810599387	10.49048319326773	106.2141224067123	-10.56216560750193	28.48854939173841	41.94337223050505	45.84713183975111	0	0	8.440373154086924	-6.518728943064851	-13.66944753800877	6.220593901448422	125.8260698564656	0	0
3.980000000000003	1.056472826878616	-3.017280458993985	34.37646062888447	0	0.9399999999999999	0	27.77133839703591	-8.89033029544418	-8.021016472881696	32.66602152610312	0.5701296291578423	0	0	0	27.77133839703591	-8.89033029544418	-8.021016472881696	32.66602152610312	0.5701296291578423	0	0	0	0.02563985836647045	-3.071373301463308	10.55767361403892	107.2391966356895	-9.993981880941028	28.90915280729614	41.82839641870523	45.64137550964591	0	0	8.480691666486416	-6.601898807236663	-13.73457747222078	6.251154467388438	126.204346494249	0	0
4.000000000000003	1.114048606394971	-3.096547664850922	34.7337999924101	0	0.9399999999999999	0	27.77777279342491	-8.891706210268831	-8.022590475470434	32.67200374168628	0.5702340385163324	0	0	0	27.77777279342491	-8.891706210268831	-8.022590475470434	32.67200374168628	0.5702340385163324	0	0	0	0.03093813856659043	-3.171029176282657	10.61203911840895	108.0990927196384	-9.384459754034776	29.25359421172325	41.12843874785017	45.17193111240627	0	0	8.537742747278934	-6.647692299054526	-13.94669048948114	6.21480281565949	126.5879738244408	0	0
4.020000000000002	1.202913197408526	-3.267500692153701	35.22085687134402	0	0.9399999999999999	0	27.78880101250883	-8.894065199821799	-8.025289294319615	32.68224435529211	0.5704127709411787	0	0	0	27.78880101250883	-8.894065199821799	-8.025289294319615	32.68224435529211	0.5704127709411787	0	0	0	0.0126877592608394	-3.36657088929564	10.75754892446689	108.8637364220378	-9.132156638930951	29.52330310060465	41.2832755258014	43.87870056981865	0	0	8.731108763429633	-6.865920005419915	-13.90043651252073	6.098902176757436	126.9702810191658	0	0
4.040000000000002	1.254437463342939	-3.334749595099704	35.44541525293934	0	0.9399999999999999	0	27.79739080835422	-8.8958983357316	-8.027388755352991	32.69022920235384	0.5705521328126741	0	0	0	27.79739080835422	-8.8958983357316	-8.027388755352991	32.69022920235384	0.5705521328126741	0	0	0	0.01809260700477869	-3.453607170289355	10.7920871760995	108.8715409072114	-9.443700475963919	29.48370621442196	42.46176138138235	43.09374146700826	0	0	8.778323945619665	-6.915342361136721	-14.19775121646829	5.993527285811973	127.2180188523964	0	0
4.060000000000001	1.286439569867005	-3.408311404462846	35.70045892409077	0	0.9399999999999999	0	27.80348717430359	-8.897197438718202	-8.028877632768991	32.69589958381632	0.5706510996390385	0	0	0	27.80348717430359	-8.897197438718202	-8.028877632768991	32.69589958381632	0.5706510996390385	0	0	0	0.002498716488986824	-3.532838603508025	10.81214794940865	109.5138213536385	-8.898844732160949	29.82565011684394	42.25682773295054	43.08055702867546	0	0	8.841991951878281	-6.963611846715758	-14.42033040036945	5.916937613142052	127.3221189314848	0	0
4.080000000000001	1.316252118898563	-3.477489347338661	35.91074048391741	0	0.9399999999999999	0	27.80927553823981	-8.898429763187487	-8.030290636010346	32.70128477175214	0.5707450888993572	0	0	0	27.80927553823981	-8.898429763187487	-8.030290636010346	32.70128477175214	0.5707450888993572	0	0	0	-0.01038451701040655	-3.60904955136114	10.88310897302106	109.5427274143237	-9.172644168966785	29.82440807007703	42.85253622283001	42.80792306285745	0	0	8.916532449669479	-7.04214934368451	-14.59277686235719	5.803818374374958	127.3917849832293	0	0
4.100000000000001	1.327649589321508	-3.543729852517488	36.24567898640419	0	0.9399999999999999	0	27.81762496735588	-8.900204236089214	-8.032326929846853	32.70905849534238	0.5708807659711468	0	0	0	27.81762496735588	-8.900204236089214	-8.032326929846853	32.70905849534238	0.5708807659711468	0	0	0	-0.04326828645190584	-3.66581753585429	10.8105581608832	110.6829321884616	-7.921982592726864	30.57452444792786	41.52613801784482	42.54306141390023	0	0	9.015723281330606	-7.131670397930442	-14.31996649815117	5.675413551586595	126.9185734924687	0	0
4.12	1.338430162212983	-3.585597245058509	36.40695756821854	0	0.9399999999999999	0	27.82485400638909	-8.901740714085976	-8.034090341171133	32.71578346384779	0.5709981388136592	0	0	0	27.82485400638909	-8.901740714085976	-8.034090341171133	32.71578346384779	0.5709981388136592	0	0	0	-0.06079555599610777	-3.704909242007254	10.78258961871959	111.0837615165127	-7.339846027886593	30.95929312999812	41.18606851292423	42.86971381972783	0	0	9.013527963722931	-7.150459382366964	-14.62973408433997	5.666396595050726	127.1316995164113	0	0
4.14	1.386832690518564	-3.70256681221314	36.70479486476439	0	0.9399999999999999	0	27.83249381386414	-8.903361494270857	-8.035952079689045	32.72289687097195	0.5711222911890106	0	0	0	27.83249381386414	-8.903361494270857	-8.035952079689045	32.72289687097195	0.5711222911890106	0	0	0	-0.09076352501355042	-3.82830946369096	10.79877279694535	111.6516329957324	-6.612834603052304	31.19593600229367	40.15918049168759	43.48063398221053	0	0	9.143668943927617	-7.361419232922689	-14.27570131274594	5.485383111318484	126.4518252353956	0	0
4.159999999999999	1.400572252090915	-3.743274730931391	36.78611301013005	0	0.9399999999999999	0	27.83761554966657	-8.904438047505989	-8.037193117035242	32.72770200638958	0.5712061566230524	0	0	0	27.83761554966657	-8.904438047505989	-8.037193117035242	32.72770200638958	0.5712061566230524	0	0	0	-0.1029455174566644	-3.870233981235685	10.82254794798862	111.6600501664819	-6.72427326157375	31.17838148576272	40.20449530384403	43.72749222397415	0	0	9.19578686602167	-7.428798290858829	-14.16009080155792	5.434970458776696	126.2707288832171	0	0
4.179999999999999	1.409135673656059	-3.833088761001015	37.00600701152479	0	0.9399999999999999	0	27.84523305464222	-8.906054241293775	-8.039050035327575	32.73478459618303	0.5713297711345163	0	0	0	27.84523305464222	-8.906054241293775	-8.039050035327575	32.73478459618303	0.5713297711345163	0	0	0	-0.1525060660668717	-3.945494358768384	10.77418184581304	112.1161310665656	-6.133316477799416	31.16890267888944	39.38883537272089	44.48624685023264	0	0	9.064695222782094	-7.467554798141152	-15.19648628710726	5.471149849906965	126.8302604260944	0	0
4.199999999999998	1.436875727323253	-3.902005586399332	37.14922645164252	0	0.9399999999999999	0	27.85028953281274	-8.907123322993112	-8.040280098100235	32.7394979019578	0.5714120338389392	0	0	0	27.85028953281274	-8.907123322993112	-8.040280098100235	32.7394979019578	0.5714120338389392	0	0	0	-0.1696395130160801	-4.019281237271976	10.81668266238275	112.2871457828415	-6.108390510494965	30.95038694737335	39.14746654879797	44.576502079409	0	0	9.153557858289178	-7.598748542198709	-14.99168963314055	5.359543695639978	126.4681099532536	0	0
4.219999999999998	1.449300849199073	-3.948912652579774	37.31023406100987	0	0.9399999999999999	0	27.85969241878406	-8.909115477423658	-8.042570858899685	32.74823917151446	0.5715645977735074	0	0	0	27.85969241878406	-8.909115477423658	-8.042570858899685	32.74823917151446	0.5715645977735074	0	0	0	-0.1894735652115233	-4.063615507527767	10.79728616206527	112.3470004757031	-6.136587208169522	30.65576895364719	39.18391280623907	43.59884287559733	0	0	9.056771790476091	-7.66315468939344	-15.56395071389076	5.429408370176499	126.9626831302191	0	0
